<svg width="32" height="32" viewBox="0 0 32 32" fill="none" xmlns="http://www.w3.org/2000/svg">
<path d="M12.2726 28.6668C12.9892 28.6668 13.5701 28.0859 13.5701 27.3693C13.5701 26.6527 12.9892 26.0718 12.2726 26.0718C11.556 26.0718 10.9751 26.6527 10.9751 27.3693C10.9751 28.0859 11.556 28.6668 12.2726 28.6668Z" stroke="black" stroke-width="0.8" stroke-linecap="round" stroke-linejoin="round"/>
<path d="M26.5456 28.6668C27.2621 28.6668 27.8431 28.0859 27.8431 27.3693C27.8431 26.6527 27.2621 26.0718 26.5456 26.0718C25.829 26.0718 25.248 26.6527 25.248 27.3693C25.248 28.0859 25.829 28.6668 26.5456 28.6668Z" stroke="black" stroke-width="0.8" stroke-linecap="round" stroke-linejoin="round"/>
<path d="M1.89258 1.41919H7.08261L10.5599 18.7928C10.6786 19.3902 11.0036 19.9268 11.478 20.3087C11.9524 20.6906 12.546 20.8935 13.155 20.8818H25.7667C26.3757 20.8935 26.9693 20.6906 27.4437 20.3087C27.9181 19.9268 28.2431 19.3902 28.3617 18.7928L30.4378 7.90673H8.38012" stroke="black" stroke-width="0.8" stroke-linecap="round" stroke-linejoin="round"/>
</svg>
