<svg width="32" height="32" viewBox="0 0 32 32" fill="none" xmlns="http://www.w3.org/2000/svg">
<path d="M26.215 15.6917V28.6667H5.45483V15.6917" stroke="black" stroke-width="0.8" stroke-linecap="round" stroke-linejoin="round"/>
<path d="M28.81 9.2041H2.85986V15.6916H28.81V9.2041Z" stroke="black" stroke-width="0.8" stroke-linecap="round" stroke-linejoin="round"/>
<path d="M15.835 28.6667V9.2041" stroke="black" stroke-width="0.8" stroke-linecap="round" stroke-linejoin="round"/>
<path d="M15.835 9.20409H9.99621C9.13591 9.20409 8.31084 8.86234 7.70252 8.25402C7.09419 7.64569 6.75244 6.82062 6.75244 5.96032C6.75244 5.10002 7.09419 4.27496 7.70252 3.66663C8.31084 3.05831 9.13591 2.71655 9.99621 2.71655C14.5375 2.71655 15.835 9.20409 15.835 9.20409Z" stroke="black" stroke-width="0.8" stroke-linecap="round" stroke-linejoin="round"/>
<path d="M15.835 9.20409H21.6737C22.5341 9.20409 23.3591 8.86234 23.9674 8.25402C24.5758 7.64569 24.9175 6.82062 24.9175 5.96032C24.9175 5.10002 24.5758 4.27496 23.9674 3.66663C23.3591 3.05831 22.5341 2.71655 21.6737 2.71655C17.1325 2.71655 15.835 9.20409 15.835 9.20409Z" stroke="black" stroke-width="0.8" stroke-linecap="round" stroke-linejoin="round"/>
</svg>
