<svg width="32" height="32" viewBox="0 0 32 32" fill="none" xmlns="http://www.w3.org/2000/svg">
<path d="M22.309 27.7714V25.1764C22.309 23.7999 21.7622 22.4798 20.7888 21.5065C19.8155 20.5331 18.4954 19.9863 17.1189 19.9863H6.73886C5.36238 19.9863 4.04227 20.5331 3.06895 21.5065C2.09563 22.4798 1.54883 23.7999 1.54883 25.1764V27.7714" stroke="black" stroke-width="0.8" stroke-linecap="round" stroke-linejoin="round"/>
<path d="M11.9288 14.7963C14.7952 14.7963 17.1188 12.4727 17.1188 9.60629C17.1188 6.73992 14.7952 4.41626 11.9288 4.41626C9.06243 4.41626 6.73877 6.73992 6.73877 9.60629C6.73877 12.4727 9.06243 14.7963 11.9288 14.7963Z" stroke="black" stroke-width="0.8" stroke-linecap="round" stroke-linejoin="round"/>
<path d="M30.0942 27.7707V25.1757C30.0933 24.0257 29.7106 22.9086 29.006 21.9998C28.3015 21.0909 27.3151 20.4418 26.2017 20.1543" stroke="black" stroke-width="0.8" stroke-linecap="round" stroke-linejoin="round"/>
<path d="M21.0117 4.58398C22.1281 4.86983 23.1176 5.5191 23.8242 6.42944C24.5309 7.33979 24.9144 8.45942 24.9144 9.61183C24.9144 10.7642 24.5309 11.8839 23.8242 12.7942C23.1176 13.7046 22.1281 14.3538 21.0117 14.6397" stroke="black" stroke-width="0.8" stroke-linecap="round" stroke-linejoin="round"/>
</svg>
