<svg width="32" height="32" viewBox="0 0 32 32" fill="none" xmlns="http://www.w3.org/2000/svg">
<path d="M8.94644 9.37719L9.19868 12.5857C8.9245 12.6051 8.66952 12.7335 8.4906 12.9422C8.31168 13.1508 8.22371 13.4224 8.24631 13.6963L9.0653 24.0764C9.1102 24.6151 9.55914 25.0302 10.0997 25.0329H10.178L10.395 27.7561C10.4601 28.5657 11.1378 29.1884 11.9499 29.185H20.4097C21.2234 29.1875 21.9019 28.5631 21.9667 27.752L22.1815 25.0329H22.2599C22.8005 25.0302 23.2494 24.6151 23.2943 24.0764L24.1133 13.6963C24.1359 13.4224 24.0479 13.1508 23.869 12.9422C23.6901 12.7335 23.4351 12.6051 23.1609 12.5857L23.4137 9.37719C24.0502 9.16867 24.4816 8.57568 24.4838 7.90581V6.79878C24.4812 5.98023 23.8472 5.30251 23.0306 5.2454L22.9268 5.23814V3.75379C22.9268 2.89387 22.2297 2.19678 21.3698 2.19678H10.9898C10.1298 2.19678 9.43275 2.89387 9.43275 3.75379V4.35376C9.02001 4.35056 8.62314 4.51265 8.33065 4.80388C8.03815 5.09511 7.87434 5.49126 7.87574 5.90402V7.90581C7.87795 8.57587 8.30956 9.16899 8.94644 9.37719ZM22.1203 12.5768H10.2393L9.99431 9.46282H22.3653L22.1203 12.5768ZM20.9307 27.6658C20.9109 27.9376 20.6842 28.1477 20.4117 28.1469H11.9499C11.6789 28.1478 11.4529 27.9401 11.4309 27.67L11.2197 25.0329H21.1399L20.9307 27.6658ZM22.2599 23.9949H10.1002L9.2812 13.6149H23.0784L22.2599 23.9949ZM10.9898 3.23478H21.3698C21.6565 3.23478 21.8888 3.46715 21.8888 3.75379V5.16911L10.4708 4.4124V3.75379C10.4708 3.46715 10.7031 3.23478 10.9898 3.23478ZM8.91375 5.90402C8.91375 5.61738 9.14611 5.38502 9.43275 5.38502H9.47012L9.94137 5.41616H9.95227H9.95798L22.9632 6.27822C23.2357 6.29707 23.447 6.52401 23.4464 6.79722V7.90581C23.4464 8.19245 23.214 8.42482 22.9274 8.42482H9.43275C9.14611 8.42482 8.91375 8.19245 8.91375 7.90581V5.90402Z" fill="black"/>
<path d="M13.6368 16.2629C11.8306 18.0628 11.5031 20.6745 12.9071 22.083C13.5103 22.6625 14.3207 22.976 15.1569 22.9534C16.5098 22.9061 17.7901 22.3301 18.723 21.3492C20.5286 19.5493 20.8561 16.9376 19.4522 15.5296C18.0483 14.1215 15.4346 14.4558 13.6368 16.2629ZM14.3706 16.9968C15.1082 16.2106 16.1225 15.7419 17.1992 15.6894C17.7288 15.6765 18.2442 15.8615 18.6446 16.2084C18.4522 16.2878 18.2492 16.3388 18.0421 16.36C16.7752 16.4636 15.7699 17.4696 15.6671 18.7365C15.6297 19.5463 14.9821 20.1945 14.1724 20.2328C13.8209 20.2681 13.4787 20.367 13.1624 20.5245C12.852 19.473 13.2906 18.0701 14.3696 16.9947L14.3706 16.9968ZM17.9923 20.6184C16.6288 21.9865 14.7339 22.327 13.7146 21.4104C13.9081 21.3294 14.1123 21.277 14.3208 21.2547C15.5877 21.1511 16.593 20.1451 16.6958 18.8782C16.7332 18.0684 17.3808 17.4202 18.1905 17.3819C18.542 17.3466 18.8842 17.2477 19.2005 17.0902C19.5083 18.1391 19.0692 19.5415 17.9912 20.6163L17.9923 20.6184Z" fill="black"/>
</svg>
