<svg width="60" height="60" viewBox="0 0 60 60" fill="none" xmlns="http://www.w3.org/2000/svg">
<rect width="60" height="60" rx="12" fill="#E6D7B0"/>
<g clip-path="url(#clip0_203_2)">
<path d="M19.6875 40.3125C19.6875 40.0639 19.7863 39.8254 19.9621 39.6496C20.1379 39.4738 20.3764 39.375 20.625 39.375H39.375C39.6236 39.375 39.8621 39.4738 40.0379 39.6496C40.2137 39.8254 40.3125 40.0639 40.3125 40.3125C40.3125 40.5611 40.2137 40.7996 40.0379 40.9754C39.8621 41.1512 39.6236 41.25 39.375 41.25H20.625C20.3764 41.25 20.1379 41.1512 19.9621 40.9754C19.7863 40.7996 19.6875 40.5611 19.6875 40.3125ZM41.2331 20.625L41.2781 20.6269C41.6285 20.6507 41.9709 20.7418 42.2869 20.895C42.5144 21.0009 42.7098 21.1652 42.8531 21.3712C42.9787 21.5587 43.125 21.8906 43.125 22.5V33.7331L43.1231 33.7781C43.0991 34.1284 43.0081 34.4709 42.855 34.7869C42.749 35.0144 42.5847 35.2097 42.3787 35.3531C42.1912 35.4787 41.8594 35.625 41.25 35.625H18.7669L18.7219 35.6231C18.3716 35.5991 18.0291 35.5081 17.7131 35.355C17.4856 35.249 17.2903 35.0847 17.1469 34.8787C17.0213 34.6913 16.875 34.3594 16.875 33.75V22.5169L16.8769 22.4719C16.9007 22.1215 16.9918 21.7791 17.145 21.4631C17.251 21.2356 17.4153 21.0403 17.6212 20.8969C17.8087 20.7713 18.1406 20.625 18.75 20.625H41.2331ZM41.25 18.75H18.75C15 18.75 15 22.5 15 22.5V33.75C15 37.5 18.75 37.5 18.75 37.5H41.25C45 37.5 45 33.75 45 33.75V22.5C45 18.75 41.25 18.75 41.25 18.75Z" fill="black"/>
</g>
<defs>
<clipPath id="clip0_203_2">
<rect width="30" height="30" fill="white" transform="translate(15 15)"/>
</clipPath>
</defs>
</svg>
