<svg width="60" height="60" viewBox="0 0 60 60" fill="none" xmlns="http://www.w3.org/2000/svg">
<rect width="60" height="60" rx="12" fill="#A3CEF4"/>
<path d="M38.437 27.1875C38.437 24.9497 37.5481 22.8036 35.9657 21.2213C34.3834 19.6389 32.2373 18.75 29.9995 18.75C27.7617 18.75 25.6156 19.6389 24.0333 21.2213C22.451 22.8036 21.562 24.9497 21.562 27.1875C21.562 30.6487 24.3314 35.16 29.9995 40.5637C35.6676 35.16 38.437 30.6487 38.437 27.1875ZM29.9995 43.125C23.1239 36.8756 19.687 31.5619 19.687 27.1875C19.687 24.4525 20.7735 21.8294 22.7075 19.8955C24.6414 17.9615 27.2645 16.875 29.9995 16.875C32.7346 16.875 35.3576 17.9615 37.2916 19.8955C39.2255 21.8294 40.312 24.4525 40.312 27.1875C40.312 31.5619 36.8751 36.8756 29.9995 43.125Z" fill="black"/>
<path d="M30 30.0001C30.7459 30.0001 31.4613 29.7038 31.9887 29.1764C32.5162 28.6489 32.8125 27.9335 32.8125 27.1876C32.8125 26.4417 32.5162 25.7263 31.9887 25.1989C31.4613 24.6714 30.7459 24.3751 30 24.3751C29.2541 24.3751 28.5387 24.6714 28.0113 25.1989C27.4838 25.7263 27.1875 26.4417 27.1875 27.1876C27.1875 27.9335 27.4838 28.6489 28.0113 29.1764C28.5387 29.7038 29.2541 30.0001 30 30.0001ZM30 31.8751C28.7568 31.8751 27.5645 31.3813 26.6854 30.5022C25.8064 29.6231 25.3125 28.4308 25.3125 27.1876C25.3125 25.9444 25.8064 24.7521 26.6854 23.8731C27.5645 22.994 28.7568 22.5001 30 22.5001C31.2432 22.5001 32.4355 22.994 33.3146 23.8731C34.1936 24.7521 34.6875 25.9444 34.6875 27.1876C34.6875 28.4308 34.1936 29.6231 33.3146 30.5022C32.4355 31.3813 31.2432 31.8751 30 31.8751Z" fill="black"/>
</svg>
