<svg width="60" height="60" viewBox="0 0 60 60" fill="none" xmlns="http://www.w3.org/2000/svg">
<rect width="60" height="60" rx="12" fill="#AFE9E4"/>
<path d="M41.2498 37.5049V35.6299C41.2457 32.8104 40.1839 30.0952 38.2744 28.0208C36.365 25.9464 33.7467 24.6639 30.9373 24.4268V22.5049H33.7498V20.6299H26.2498V22.5049H29.0623V24.4268C26.2528 24.6639 23.6346 25.9464 21.7251 28.0208C19.8156 30.0952 18.7539 32.8104 18.7498 35.6299V37.5049H16.8748V39.3799H43.1248V37.5049H41.2498ZM29.9998 26.2549C32.1599 26.2579 34.2529 27.0054 35.9261 28.3716C37.5993 29.7378 38.7504 31.639 39.1854 33.7549H20.8141C21.2491 31.639 22.4002 29.7378 24.0734 28.3716C25.7466 27.0054 27.8396 26.2579 29.9998 26.2549ZM20.6248 35.6299H39.3748V37.5049H20.6248V35.6299Z" fill="black"/>
</svg>
