<svg width="60" height="60" viewBox="0 0 60 60" fill="none" xmlns="http://www.w3.org/2000/svg">
<rect width="60" height="60" rx="12" fill="#F3E4AD"/>
<path d="M18 21.4365C18 20.525 18.3621 19.651 19.0065 19.0065C19.651 18.3621 20.525 18 21.4365 18H33.464C34.3754 18 35.2495 18.3621 35.894 19.0065C36.5384 19.651 36.9005 20.525 36.9005 21.4365V33.464H42.0552V36.9005C42.0552 38.2676 41.5121 39.5787 40.5454 40.5454C39.5787 41.5121 38.2676 42.0552 36.9005 42.0552H23.1547C21.7876 42.0552 20.4765 41.5121 19.5098 40.5454C18.5431 39.5787 18 38.2676 18 36.9005V21.4365ZM36.9005 35.1823V40.3369C37.8119 40.3369 38.686 39.9749 39.3304 39.3304C39.9749 38.686 40.3369 37.8119 40.3369 36.9005V35.1823H36.9005ZM35.1823 40.3369V21.4365C35.1823 20.9808 35.0012 20.5437 34.679 20.2215C34.3568 19.8993 33.9197 19.7182 33.464 19.7182H21.4365C20.9808 19.7182 20.5437 19.8993 20.2215 20.2215C19.8993 20.5437 19.7182 20.9808 19.7182 21.4365V36.9005C19.7182 37.8119 20.0803 38.686 20.7247 39.3304C21.3692 39.9749 22.2433 40.3369 23.1547 40.3369H35.1823ZM23.1547 24.0138C23.1547 23.7859 23.2452 23.5674 23.4063 23.4063C23.5674 23.2452 23.7859 23.1547 24.0138 23.1547H30.8867C31.1145 23.1547 31.3331 23.2452 31.4942 23.4063C31.6553 23.5674 31.7458 23.7859 31.7458 24.0138C31.7458 24.2416 31.6553 24.4602 31.4942 24.6213C31.3331 24.7824 31.1145 24.8729 30.8867 24.8729H24.0138C23.7859 24.8729 23.5674 24.7824 23.4063 24.6213C23.2452 24.4602 23.1547 24.2416 23.1547 24.0138ZM23.1547 29.1685C23.1547 28.9406 23.2452 28.7221 23.4063 28.561C23.5674 28.3999 23.7859 28.3094 24.0138 28.3094H30.8867C31.1145 28.3094 31.3331 28.3999 31.4942 28.561C31.6553 28.7221 31.7458 28.9406 31.7458 29.1685C31.7458 29.3963 31.6553 29.6148 31.4942 29.776C31.3331 29.9371 31.1145 30.0276 30.8867 30.0276H24.0138C23.7859 30.0276 23.5674 29.9371 23.4063 29.776C23.2452 29.6148 23.1547 29.3963 23.1547 29.1685ZM23.1547 34.3232C23.1547 34.0953 23.2452 33.8768 23.4063 33.7157C23.5674 33.5546 23.7859 33.464 24.0138 33.464H27.4502C27.6781 33.464 27.8966 33.5546 28.0577 33.7157C28.2188 33.8768 28.3094 34.0953 28.3094 34.3232C28.3094 34.551 28.2188 34.7695 28.0577 34.9306C27.8966 35.0918 27.6781 35.1823 27.4502 35.1823H24.0138C23.7859 35.1823 23.5674 35.0918 23.4063 34.9306C23.2452 34.7695 23.1547 34.551 23.1547 34.3232Z" fill="black"/>
</svg>
