<svg width="60" height="60" viewBox="0 0 60 60" fill="none" xmlns="http://www.w3.org/2000/svg">
<rect width="60" height="60" rx="12" fill="#EEBFB4"/>
<path d="M40.7812 20.3905H35.8594V18.5155C35.8594 18.3866 35.7539 18.2811 35.625 18.2811H33.9844C33.8555 18.2811 33.75 18.3866 33.75 18.5155V20.3905H26.25V18.5155C26.25 18.3866 26.1445 18.2811 26.0156 18.2811H24.375C24.2461 18.2811 24.1406 18.3866 24.1406 18.5155V20.3905H19.2188C18.7002 20.3905 18.2812 20.8094 18.2812 21.328V40.7811C18.2812 41.2997 18.7002 41.7186 19.2188 41.7186H40.7812C41.2998 41.7186 41.7188 41.2997 41.7188 40.7811V21.328C41.7188 20.8094 41.2998 20.3905 40.7812 20.3905ZM39.6094 39.6093H20.3906V28.4764H39.6094V39.6093ZM20.3906 26.4843V22.4999H24.1406V23.9061C24.1406 24.035 24.2461 24.1405 24.375 24.1405H26.0156C26.1445 24.1405 26.25 24.035 26.25 23.9061V22.4999H33.75V23.9061C33.75 24.035 33.8555 24.1405 33.9844 24.1405H35.625C35.7539 24.1405 35.8594 24.035 35.8594 23.9061V22.4999H39.6094V26.4843H20.3906Z" fill="black"/>
</svg>
