<svg width="60" height="60" viewBox="0 0 60 60" fill="none" xmlns="http://www.w3.org/2000/svg">
<rect width="60" height="60" rx="12" fill="#ADEBF3"/>
<path fill-rule="evenodd" clip-rule="evenodd" d="M25.5293 24.2398C25.0171 25.0116 24.2867 25.6134 23.4311 25.9685C23.1536 26.081 22.5724 26.2273 22.5724 26.2273V35.6173C23.7824 35.8667 24.8458 36.5819 25.533 37.6085C26.0449 38.381 26.3186 39.2866 26.3186 40.211C26.3336 40.8541 26.2118 41.4935 25.9624 42.086C25.6048 42.9541 24.9933 43.6939 24.2081 44.2085C23.4228 44.723 22.5004 44.9884 21.5618 44.9698C20.6354 44.9727 19.7292 44.6992 18.9593 44.1841C18.1868 43.6713 17.5848 42.9398 17.2301 42.0831C16.8754 41.2265 16.7842 40.2835 16.968 39.3748C17.1461 38.4635 17.5886 37.6273 18.243 36.9691C18.8974 36.326 19.7243 35.8835 20.6224 35.6941V26.1541C19.7251 25.9616 18.9003 25.5196 18.243 24.8791C17.5896 24.2209 17.146 23.3838 16.968 22.4735C16.7838 21.5651 16.8745 20.6224 17.2285 19.7658C17.5825 18.9092 18.1838 18.1775 18.9555 17.6641C19.7265 17.1479 20.6339 16.873 21.5618 16.8748C22.1892 16.8646 22.8123 16.9803 23.3942 17.2151C23.9762 17.4499 24.5052 17.7989 24.9499 18.2416C25.3942 18.6863 25.7443 19.2161 25.9792 19.7992C26.214 20.3823 26.3288 21.0069 26.3168 21.6354C26.3205 22.5616 26.0468 23.4691 25.5293 24.2398ZM24.1118 38.9791C23.8714 38.5302 23.5137 38.155 23.0768 37.8935C22.6418 37.6298 22.1416 37.4934 21.633 37.4998C21.2173 37.4985 20.8065 37.5898 20.4304 37.7669C20.0543 37.944 19.7223 38.2026 19.4585 38.5239C19.1947 38.8451 19.0056 39.2211 18.905 39.6244C18.8044 40.0278 18.7947 40.4485 18.8768 40.856C18.9837 41.4028 19.2514 41.9053 19.6455 42.2991C20.0397 42.6929 20.5424 42.9602 21.0893 43.0666C21.6293 43.1754 22.188 43.1229 22.7018 42.9166C23.2193 42.6973 23.6618 42.3316 23.9768 41.8666C24.258 41.4429 24.4174 40.9479 24.4436 40.4416C24.4665 39.9332 24.3518 39.4279 24.1118 38.9791ZM20.0768 23.8891C20.5399 24.191 21.0818 24.3579 21.633 24.3579C22.1411 24.3579 22.6418 24.2173 23.0768 23.9623C23.512 23.699 23.8685 23.3235 24.109 22.8753C24.3494 22.427 24.465 21.9224 24.4436 21.4141C24.4181 20.9057 24.2562 20.4135 23.9749 19.9891C23.6603 19.5233 23.2174 19.1586 22.6999 18.9391C22.189 18.731 21.6279 18.6788 21.0874 18.7891C20.5407 18.8963 20.0383 19.164 19.6446 19.5581C19.2508 19.9523 18.9835 20.4548 18.8768 21.0016C18.768 21.5416 18.8205 22.1004 19.0268 22.6141C19.2461 23.1316 19.6118 23.5741 20.0768 23.8891ZM39.4436 35.6941C40.3436 35.876 41.1724 36.3223 41.823 36.9691C42.6968 37.8504 43.1899 39.0448 43.1824 40.2804C43.1861 41.2048 42.9124 42.1123 42.3949 42.8829C41.8809 43.6554 41.1491 44.2579 40.2923 44.6141C39.4355 44.9702 38.4923 45.064 37.5821 44.8834C36.672 44.7029 35.8359 44.2562 35.1799 43.5999C34.524 42.9437 34.0776 42.1075 33.8974 41.1973C33.7178 40.2876 33.8121 39.3452 34.1682 38.4891C34.5243 37.633 35.1263 36.9018 35.898 36.3879C36.3986 36.0448 36.9686 35.8104 37.5649 35.6941V25.2916C37.5644 24.546 37.2679 23.8311 36.7405 23.3041C36.2131 22.7771 35.498 22.481 34.7524 22.481H31.2874L33.6668 24.8623L32.3355 26.1916L28.3436 22.1998V20.8873L32.3374 16.8935L33.6686 18.2266L31.2893 20.6079H34.758C35.6863 20.6027 36.5949 20.875 37.3673 21.3898C38.1397 21.9046 38.7406 22.6385 39.093 23.4973C39.3274 24.0635 39.4474 24.6748 39.4436 25.2916V35.6941ZM40.488 42.2735C40.9498 41.8162 41.238 41.2125 41.3034 40.5659C41.3687 39.9194 41.2071 39.2702 40.8461 38.7298C40.5312 38.2647 40.0884 37.9006 39.5711 37.6816C39.0602 37.4735 38.4992 37.4213 37.9586 37.5316C37.4118 37.6386 36.9093 37.9062 36.5155 38.3004C36.1217 38.6945 35.8545 39.1972 35.748 39.7441C35.6377 40.2847 35.6899 40.8457 35.898 41.3566C36.0727 41.7863 36.3512 42.1659 36.7086 42.4615C37.066 42.7572 37.4911 42.9595 37.9459 43.0506C38.4007 43.1416 38.871 43.1184 39.3146 42.9832C39.7582 42.8479 40.1614 42.6047 40.488 42.2754V42.2735Z" fill="black"/>
</svg>
