<svg width="16" height="68" viewBox="0 0 16 68" fill="none" xmlns="http://www.w3.org/2000/svg">
<path d="M13.144 42.196C13.144 40.252 12.088 39.244 10.756 39.244C9.736 39.244 8.764 40.144 8.368 41.776L8.14 42.7C7.948 43.504 7.576 44.044 6.796 44.044C5.92 44.044 5.356 43.372 5.356 42.292C5.356 41.26 5.848 40.516 6.628 40.216L6.292 39.256C5.368 39.568 4.456 40.552 4.456 42.184C4.456 44.044 5.356 45.064 6.88 45.064C8.116 45.064 8.776 44.14 9.076 42.988L9.316 42.064C9.58 40.996 10.06 40.276 10.84 40.276C11.68 40.276 12.244 41.056 12.244 42.352C12.244 43.408 11.644 44.164 10.936 44.416L11.272 45.388C12.244 45.076 13.144 44.032 13.144 42.196ZM13.144 33.9729C13.144 32.4729 12.208 31.0329 10.876 30.4089L10.432 31.2969C11.5 31.7769 12.244 32.8449 12.244 33.9609C12.244 35.7729 10.828 37.0569 8.8 37.0569C6.796 37.0569 5.38 35.7849 5.38 33.9969C5.38 32.9049 6.064 31.8249 7.036 31.3329L6.604 30.4569C5.332 31.0569 4.456 32.4969 4.456 33.9969C4.456 36.3969 6.256 38.0769 8.8 38.0769C11.344 38.0769 13.144 36.3849 13.144 33.9729ZM13 28.8645L13 27.8445L9.7 27.8445L9.7 26.2605C9.7 26.1885 9.7 26.1285 9.688 26.0565L13 24.1245L13 23.0085L9.496 25.0605C9.112 24.0285 8.248 23.3445 7.144 23.3445C5.644 23.3445 4.576 24.4965 4.588 26.1285L4.6 27.9045L4.6 28.8645L13 28.8645ZM5.512 26.1525C5.512 25.0965 6.184 24.3645 7.144 24.3645C8.092 24.3645 8.764 25.0845 8.764 25.9845L8.764 27.8445L5.512 27.8445L5.512 26.1525ZM13.144 17.7767C13.144 15.3887 11.356 13.7087 8.8 13.7087C6.256 13.7087 4.456 15.3887 4.456 17.8127C4.456 20.2247 6.244 21.9167 8.8 21.9167C11.356 21.9167 13.144 20.2007 13.144 17.7767ZM12.22 17.7767C12.22 19.6007 10.804 20.8967 8.8 20.8967C6.796 20.8967 5.38 19.6127 5.38 17.8127C5.38 16.0007 6.796 14.7287 8.8 14.7287C10.804 14.7287 12.22 15.9887 12.22 17.7767ZM13 12.0363L13 7.05634L12.076 7.05634L12.076 11.0163L4.6 11.0163L4.6 12.0363L13 12.0363ZM13 5.80197L13 0.821968L12.076 0.821968L12.076 4.78197L4.6 4.78197L4.6 5.80197L13 5.80197Z" fill="black"/>
<g clip-path="url(#clip0_64_228)">
<path d="M3.33329 57.9999L4.14996 57.1687L7.41663 60.4353L7.41663 53.3333L8.58329 53.3333L8.58329 60.4353L11.85 57.1687L12.6666 57.9999L7.99996 62.6666L3.33329 57.9999Z" fill="black"/>
<circle cx="7.99996" cy="66.0001" r="1.33333" fill="black"/>
</g>
<defs>
<clipPath id="clip0_64_228">
<rect width="16" height="16" fill="white" transform="translate(16 52) rotate(90)"/>
</clipPath>
</defs>
</svg>
